<svg id="Layer_1" data-name="Layer 1" xmlns="http://www.w3.org/2000/svg" viewBox="0 0 1605.76 357.4"><defs><style>.cls-1{fill:#920503;}.cls-2{fill:#020201;}.cls-3{fill:#f2df83;}.cls-4{fill:#b73b1e;}.cls-5{fill:#192d3a;}</style></defs><title>thats_amore_logo_long</title><path class="cls-1" d="M197.4,33.48c17-3.34,34.58-1.33,50.92,4a129.8,129.8,0,0,1,28.63,15.46c7.08,4.42,12.17,11.23,19,15.91a16,16,0,0,1,5.19,4.89c1.52,4.75,4.76,8.65,6.65,13.23,4.19,9,5.86,18.82,7.66,28.48,1.48,7.9,1.1,16,.89,24a105.05,105.05,0,0,1-27.93,63c-3.72,4-6.82,8.48-10.71,12.29-9,9.14-16.41,19.62-24.23,29.73-4.95,7.14-9.92,14.28-14.33,21.77-7.13,10.45-13,21.7-19.58,32.45a36.15,36.15,0,0,0-3.7,7.67,32.46,32.46,0,0,0-3.37-7.15c-1.74-2.71-3.19-5.76-5.84-7.72-3.47-4.11-5-9.43-7.92-13.89-1.57-2.64-3-5.36-4.56-8-13.27.78-26.52,2.07-39.74,3.53-17.67,2.76-35.41,5.29-52.81,9.49C95.58,284,90,286.91,84.29,289.23,80,291.2,75.44,292.36,71,294c-6.84,2.67-14,4.46-20.76,7.32,7.52,3.9,15.69,6.3,23.47,9.61,8.61,3.55,17.71,5.84,26.05,10,4,1.7,8.22,2.94,12.25,4.62,6,2.26,11.8,5.16,17.85,7.38,8.24,2.93,16.13,6.77,24.41,9.62,7.07,2.93,14.15,5.87,21.37,8.45,6.31,2.9,12.87,5.19,19.3,7.82,6.18,3,12.78,5,19,7.88,7.13,3,14.13,6.61,21.73,8.33,1.51.56,2.68-.73,3.82-1.51,8.33-6.73,17.22-12.69,25.74-19.17,8.08-6.38,17-11.54,25.12-17.92,9.39-6.47,18.44-13.46,28-19.6a57.35,57.35,0,0,0,6.47-5.05c4.93-3.67,9.74-7.5,14.37-11.53a34.26,34.26,0,0,0-7.86-4.9c-3.6-1.4-7.5-1.73-11.21-2.72-4.34-1.18-8.47-2.94-12.68-4.47-4.51-1.65-9.21-2.69-13.8-4.11a223.41,223.41,0,0,0-25.38-6.91c-5.65-1-11.31-2-17-2.87a25,25,0,0,0-2.64-1.1l.12-.47c1.38-1.77,2.92-3.41,4.35-5.14,8.36.84,16.74,1.83,24.87,4,17.67,4.36,34.61,11.2,52.2,15.79,6.12,1.4,11.79,4.16,17.48,6.71.82,3.39.24,7.22,2.46,10.24-7.31,4.89-14.19,10.38-21.19,15.68-4.42,3.63-9.45,6.42-13.74,10.21-3.58,3.19-7.93,5.31-11.47,8.54-9.35,7-18.77,13.84-28,21-2.12,2-4.8,3.23-7.1,5-9.5,7.59-19.57,14.42-29.12,21.94a10.8,10.8,0,0,1-9.63,2.18c-5.2-1.52-9.91-4.29-15-6-4.07-1.49-8-3.21-12-5-10.75-4.74-21.76-8.86-32.47-13.65-7.23-2.47-14-6-21.11-8.82-13-5-25.59-10.7-38.61-15.48-8-3.45-16.23-6.26-24.26-9.62-6.75-3.24-14-5.34-20.86-8.24-8.54-3.58-17.34-6.49-25.92-10a45,45,0,0,0-5.57-1.53,21.08,21.08,0,0,0-1.39-5.94,10.78,10.78,0,0,1,3.84-4.94A50.61,50.61,0,0,1,54,291.87c8.77-2.68,17.3-6.11,26-8.91,4.38-1.32,8.2-3.93,12.47-5.49a153,153,0,0,1,22.95-5.2c12.54-2.81,25.31-4.39,38-6.12a117.45,117.45,0,0,1,14-1.72c7.45-1,15-1.51,22.46-1.84-4.45-7.93-8.79-16-14.32-23.23a166.3,166.3,0,0,0-20.64-25.49c-7.35-7.79-14.16-16.17-19.4-25.54-3.59-7-7.41-13.95-9.6-21.55-3.43-11.46-5.83-23.37-5.41-35.39-.47-10.31,2.07-20.4,4.51-30.33a113.33,113.33,0,0,1,16.67-33.27C151,55.87,162.79,45.52,177,40c6.37-3.35,13.45-4.93,20.41-6.51M211.69,63.8a89.84,89.84,0,0,0-18.59,4.34c-12.54,5.42-24.16,13.73-31.73,25.27-1.79,2.88-4,5.5-5.29,8.7-5.41,12.26-8.32,26-6.1,39.38a70.14,70.14,0,0,0,19.12,40.23c4.07,4.7,9.34,8.08,14.32,11.7,9.67,5.68,20.62,9.9,32,9.85,6.4,0,13,.28,19.14-1.68A72.69,72.69,0,0,0,284,155.08c1-4.13,2.44-8.12,2.89-12.35,2.2-12.52-.61-25.23-4.79-37-4.69-10-11.19-19.23-19.76-26.23-3.89-3.66-8.79-5.94-13.32-8.67-3.55-2.17-7.6-3.29-11.52-4.58C229.11,64,220.34,62.61,211.69,63.8Z" transform="translate(-32.81 -31.84)"/><g id="_020201ff" data-name="#020201ff"><path class="cls-2" d="M301.18,73.72a40.14,40.14,0,0,1,6.33,6.37c2.75,3.67,6.09,6.95,8.07,11.14a89.75,89.75,0,0,1,13.2,48.17,91.13,91.13,0,0,1-7.43,37.74c-3.37,8.22-7.61,16.18-13.39,23-3.19,4.38-6.89,8.32-10.37,12.46-14.22,14-26,30.18-38,46.07-2.23,2.91-3.9,6.22-6.33,9-1.43,1.73-3,3.37-4.35,5.14l-.12.47-.46.53c-3.94,5-7.51,10.27-11.23,15.43a126.62,126.62,0,0,0-9.92,13.25c-1,1.71-2.06,3.43-3.09,5.15a60.59,60.59,0,0,1-8.16-1.21,36.15,36.15,0,0,1,3.7-7.67c6.63-10.75,12.45-22,19.58-32.45,4.41-7.49,9.38-14.63,14.33-21.77,7.82-10.11,15.25-20.59,24.23-29.73,3.89-3.81,7-8.32,10.71-12.29a105.05,105.05,0,0,0,27.93-63c.21-8,.59-16.08-.89-24-1.8-9.66-3.47-19.5-7.66-28.48C305.94,82.37,302.7,78.47,301.18,73.72Z" transform="translate(-32.81 -31.84)"/></g><g id="_f2df83ff" data-name="#f2df83ff"><path class="cls-3" d="M154.47,273.15c13.22-1.46,26.47-2.75,39.74-3.53,1.57,2.63,3,5.35,4.56,8-3.38,0-7.41.87-9.28,4-.22,2.34-.18,5.33,2.23,6.56,4.44,2.76,9.87,3.1,15,3.37,2.65,2,4.1,5,5.84,7.72a32.46,32.46,0,0,1,3.37,7.15,60.59,60.59,0,0,0,8.16,1.21c28.1,1.85,56.08,5.13,84.06,8.32,3.43.43,6.88.73,10.34,1-9.61,6.14-18.66,13.13-28,19.6-8.08,6.38-17,11.54-25.12,17.92-8.52,6.48-17.41,12.44-25.74,19.17-1.14.78-2.31,2.07-3.82,1.51-7.6-1.72-14.6-5.28-21.73-8.33-6.23-2.89-12.83-4.87-19-7.88-6.43-2.63-13-4.92-19.3-7.82-7.22-2.58-14.3-5.52-21.37-8.45-8.28-2.85-16.17-6.69-24.41-9.62-6.05-2.22-11.82-5.12-17.85-7.38-4-1.68-8.23-2.92-12.25-4.62-8.34-4.19-17.44-6.48-26.05-10-7.78-3.31-15.95-5.71-23.47-9.61,6.77-2.86,13.92-4.65,20.76-7.32,4.39-1.66,9-2.82,13.24-4.79,5.74-2.32,11.29-5.24,17.37-6.59,17.4-4.2,35.14-6.73,52.81-9.49m4.45,16.77c-7.17,1-14.77,2.67-20.15,7.85-4,3.45-4.85,10.39-1,14.23,4,4.64,10.13,6.47,15.75,8.3,10,2.06,20.72,1.57,30.11-2.61,4.15-1.92,8.38-4.78,9.76-9.39,1.4-3.07-.18-6.48-1.69-9.17a27.76,27.76,0,0,0-13.29-7.8,52.16,52.16,0,0,0-19.5-1.41m-62,5.9c-4.2,1-9.19,2.88-10.2,7.62a7.92,7.92,0,0,0,5.1,6.68,30,30,0,0,0,20.53.26c3.06-1.35,6.66-4,6-7.82-1-2.8-3.64-4.66-6.33-5.66a27.75,27.75,0,0,0-15.1-1.08m158,30c-4.35.49-9.72.73-12.37,4.8-.6,2.12-.87,5.05,1.08,6.58,4.07,3.43,9.68,4.18,14.84,4,3.93-.07,8.1-1,11.07-3.71.86-.87,2.06-1.75,2-3.12.56-3.34-2.39-5.86-5.16-7a30,30,0,0,0-11.46-1.57m-44,15c-3.66.52-7.49,1.26-10.57,3.43a8.83,8.83,0,0,0-3.65,7.9c.93,3.63,4.1,6,7.18,7.77,3.1,2.07,7,1.7,10.54,1.73a21.47,21.47,0,0,0,14.21-5.07c3.06-2.65,3.81-8.17.4-10.85C224.21,341.38,217.17,340.46,210.9,340.88Z" transform="translate(-32.81 -31.84)"/><path class="cls-3" d="M248.76,273.22a25,25,0,0,1,2.64,1.1c5.66.91,11.32,1.83,17,2.87a223.41,223.41,0,0,1,25.38,6.91c4.59,1.42,9.29,2.46,13.8,4.11,4.21,1.53,8.34,3.29,12.68,4.47,3.71,1,7.61,1.32,11.21,2.72a34.26,34.26,0,0,1,7.86,4.9c-4.63,4-9.44,7.86-14.37,11.53a302.94,302.94,0,0,1-37.44-3.48c-6.59-1.34-13.32-1.66-20-2.3-13.45-1.28-26.89-2.55-40.35-3.62a126.62,126.62,0,0,1,9.92-13.25c3.72-5.16,7.29-10.44,11.23-15.43l.46-.53m47.1,17.61c-4.87.35-10.45,1.31-13.5,5.55-1.54,1.62-2,4.62-.1,6.14,3.18,2.68,6.65,5.89,11.09,5.76,5,.18,10,1,15.06.89,2.8,0,5.28-1.77,7.07-3.79,1.14-2.18.49-4.71.27-7,0-3.08-2.86-5-5.45-5.94C305.69,290.79,300.7,290.6,295.86,290.83Z" transform="translate(-32.81 -31.84)"/></g><g id="_b73b1eff" data-name="#b73b1eff"><path class="cls-4" d="M189.49,281.57c1.87-3.09,5.9-3.93,9.28-4,3,4.46,4.45,9.78,7.92,13.89-5.1-.27-10.53-.61-15-3.37C189.31,286.9,189.27,283.91,189.49,281.57Z" transform="translate(-32.81 -31.84)"/><path class="cls-4" d="M158.92,289.92a52.16,52.16,0,0,1,19.5,1.41,27.76,27.76,0,0,1,13.29,7.8c1.51,2.69,3.09,6.1,1.69,9.17-1.38,4.61-5.61,7.47-9.76,9.39-9.39,4.18-20.13,4.67-30.11,2.61-5.62-1.83-11.76-3.66-15.75-8.3-3.86-3.84-3-10.78,1-14.23C144.15,292.59,151.75,290.89,158.92,289.92Z" transform="translate(-32.81 -31.84)"/><path class="cls-4" d="M295.86,290.83c4.84-.23,9.83,0,14.44,1.59,2.59.94,5.45,2.86,5.45,5.94.22,2.31.87,4.84-.27,7-1.79,2-4.27,3.8-7.07,3.79-5,.14-10-.71-15.06-.89-4.44.13-7.91-3.08-11.09-5.76-1.9-1.52-1.44-4.52.1-6.14C285.41,292.14,291,291.18,295.86,290.83Z" transform="translate(-32.81 -31.84)"/><path class="cls-4" d="M96.87,295.82A27.75,27.75,0,0,1,112,296.9c2.69,1,5.32,2.86,6.33,5.66.66,3.8-2.94,6.47-6,7.82a30,30,0,0,1-20.53-.26,7.92,7.92,0,0,1-5.1-6.68C87.68,298.7,92.67,296.81,96.87,295.82Z" transform="translate(-32.81 -31.84)"/><path class="cls-4" d="M254.87,325.84a30,30,0,0,1,11.46,1.57c2.77,1.13,5.72,3.65,5.16,7,.06,1.37-1.14,2.25-2,3.12-3,2.75-7.14,3.64-11.07,3.71-5.16.17-10.77-.58-14.84-4-1.95-1.53-1.68-4.46-1.08-6.58C245.15,326.57,250.52,326.33,254.87,325.84Z" transform="translate(-32.81 -31.84)"/><path class="cls-4" d="M210.9,340.88c6.27-.42,13.31.5,18.11,4.91,3.41,2.68,2.66,8.2-.4,10.85a21.47,21.47,0,0,1-14.21,5.07c-3.54,0-7.44.34-10.54-1.73-3.08-1.78-6.25-4.14-7.18-7.77a8.83,8.83,0,0,1,3.65-7.9C203.41,342.14,207.24,341.4,210.9,340.88Z" transform="translate(-32.81 -31.84)"/></g><g id="_192d3aff" data-name="#192d3aff"><path class="cls-5" d="M224.06,307.58c1-1.72,2-3.44,3.09-5.15,13.46,1.07,26.9,2.34,40.35,3.62,6.67.64,13.4,1,20,2.3a302.94,302.94,0,0,0,37.44,3.48,57.35,57.35,0,0,1-6.47,5.05c-3.46-.25-6.91-.55-10.34-1C280.14,312.71,252.16,309.43,224.06,307.58Z" transform="translate(-32.81 -31.84)"/></g><path class="cls-1" d="M452.88,147q4.2-3,7.3-3.2t8.1,2.2q5.2,2.6,32.8,2h17.7a40.71,40.71,0,0,1,10.3,1q3.6,1,4.8,2.6a7.57,7.57,0,0,1,1.2,4.6q0,3.6-3.9,7a12.23,12.23,0,0,1-8.1,3.4q-5,0-24.6,3-6.2,1-9.5,1.5a41.66,41.66,0,0,0-6.9,1.7,36,36,0,0,0-4.9,1.9,11.75,11.75,0,0,0-3.1,2.9,10.09,10.09,0,0,0-2.2,4q-.4,1.8-1.3,5.9a48.4,48.4,0,0,0-1.1,7.7q-.2,3.6-1.2,10.3t-2,12.9q-2,12.8-3.3,24.7t-1.8,16.7a47,47,0,0,1-1.8,9,18.36,18.36,0,0,1-4.1,7.2q-4.8,5-9.7,4.9t-8.1-5.5a16.49,16.49,0,0,1-1.9-3.8,17.79,17.79,0,0,1-.7-3.5,29.42,29.42,0,0,1,.3-6q.5-4.1,1.1-8.9t1.8-14.7q1.2-9.9,2.2-20.9,1-10.8,2.9-21.3t2.8-15.4q.9-4.9.3-5.7-1.8-3-30.4,1.6-13.2,2-16.3,2a7.56,7.56,0,0,1-5.5-2.4q-3.8-3.2-3.6-8.9a13.59,13.59,0,0,1,4-9.5,16.9,16.9,0,0,1,7.8-3.4q5-1,21.2-2.4,14.8-1,20.8-2.1T452.88,147Z" transform="translate(-32.81 -31.84)"/><path class="cls-1" d="M567.48,154.19a15.55,15.55,0,0,1,.9-5.3,44.42,44.42,0,0,1,3.1-6.4,55.54,55.54,0,0,0,3-5.9q1.2-2.6,2.7-3.1t5.9.3q6.6,1,8.4,2.8,2.8,2.4.9,16.9a192.29,192.29,0,0,1-6.9,30.9q-3.4,10.6-2.3,11.7t10.5-9.1q7-7.4,9.3-8.6t8.3-.6a28.57,28.57,0,0,1,14.2,5.8l6.2,4.6v16q0,25.2-11.2,51.8a65.63,65.63,0,0,0-4,14.8,30.44,30.44,0,0,1-5.1,13q-4.1,6-8.1,6-3.2,0-7-4.2-2.8-3-3.1-5.3t1.3-10.5q1.8-9.4,3.2-14.5t7-20.5a109.17,109.17,0,0,0,5.7-23.1q1.5-11.5-1.1-12.3-2-.8-7.6,4t-5.6,7q0,2.4-2.6,4.4-3.8,3.2-13.7,26.1t-11.7,33.3a15.22,15.22,0,0,1-6.1,9.6,16.36,16.36,0,0,1-10.8,3.3,11.93,11.93,0,0,1-9.3-4.7,12.54,12.54,0,0,1-2.7-5.5,9,9,0,0,1,.7-4.7,88.21,88.21,0,0,0,2.9-9.9,166,166,0,0,0,3.3-17.5,99.49,99.49,0,0,1,3.3-17.3,68.9,68.9,0,0,0,2.7-11.7,77.53,77.53,0,0,1,4.1-15,83.7,83.7,0,0,0,4.1-14.2q1-5.6,4.1-17.2T567.48,154.19Z" transform="translate(-32.81 -31.84)"/><path class="cls-1" d="M646.48,218.59q0-2.4,3.5-6.4t3.5-5.4q0-2.8,11.6-13t18.2-13.2a68.56,68.56,0,0,1,23.8-5.7q13.2-.9,20,3.1a19.82,19.82,0,0,1,6.2,7q2.4,4.4,1.4,7-.4,1.4-1.3,9.8t-2.1,20.9q-1.2,12.5-2,19.5-1,8,1.1,10.7t9.9,3.9q14.4,2.2,6.2,10.8-6,6.2-23.2,6.8a51.32,51.32,0,0,1-5.3.1,4.94,4.94,0,0,1-3-1.5,8.52,8.52,0,0,1-2.1-2.8q-.6-1.4-2.6-5.6t-4.4-8.4q-.2-.4-2.7,1.7t-6.9,5.6q-4.4,3.5-9.8,7a62.23,62.23,0,0,1-12.5,6.1,40.77,40.77,0,0,1-14.1,2.6q-6,0-8.5-1t-6.1-4.8q-9.6-10.2-9.6-23.4,0-5.6,2.9-14.9t5.1-11.3A6.47,6.47,0,0,0,646.48,218.59Zm63.2-21.8a4.63,4.63,0,0,0-7,0q-1,1.6-6,2.8-9.2,2-21.6,16.5t-14.8,26.1q-2.4,11.6.3,14.3t12.1-1.7q6.4-3,14-11.2a72.07,72.07,0,0,0,11.8-16.6,177.51,177.51,0,0,0,8.6-19.5Q710.48,198.19,709.68,196.79Z" transform="translate(-32.81 -31.84)"/><path class="cls-1" d="M831.68,152.79q0,4-3.6,10.7t-3.6,9.1q0,3.2-3.6,10.4a27,27,0,0,0-3,12.2q0,6.2,3.2,6.6.6.2,8.5.9t13.5,1.7q5.6,1,7.6,2.4,2.4,1.8,2.3,2.7t-3.1,4.1a16.85,16.85,0,0,1-6.2,3.8,73.61,73.61,0,0,1-11.6,2.8q-5.6.8-7.4,1.1t-5.2,1.2q-3.4.9-4.1,1a6.25,6.25,0,0,0-2.4,1.7q-1.7,1.6-1.7,2.1a23.13,23.13,0,0,1-.6,3.1,14.12,14.12,0,0,0-.5,3.9q.1,1.3.1,5.5,0,12,2.1,15.1t10.7,3.3a88.08,88.08,0,0,0,15.7-1.9,105.05,105.05,0,0,0,15.9-4.1,9.34,9.34,0,0,1,8.4.9q4.4,2.5,4.4,6.5,0,3.2-7.9,9.1t-14.1,7.3q-5,1-11.6,2.8t-9.8,2.6a44.21,44.21,0,0,1-7.7,1.1,24.56,24.56,0,0,1-8.6-.9,51.12,51.12,0,0,1-9.1-3.8q-9.2-5-12.4-11.9t-3.4-22.9l-.2-16.6-12,.8q-8.4.4-10.6-.2t-4.4-4a12.74,12.74,0,0,1-2.1-5.1,17.93,17.93,0,0,1,.7-6.3l1.6-6.6,14.6-1q14.8-.8,16.4-2.6,1.2-1.2,7.3-19t7.3-18.4q1.6-1,1.6-4.3t4.6-11.5q3-5.4,4.8-6.9a8.28,8.28,0,0,1,5.4-1.5,13.54,13.54,0,0,1,9.6,4A12.18,12.18,0,0,1,831.68,152.79Z" transform="translate(-32.81 -31.84)"/><path class="cls-1" d="M906.27,148.6c-4.6,16.8-13.2,38.2-18.8,47.4l-11.2,1.4c4.4-11.8,9.6-32.6,11.8-47Z" transform="translate(-32.81 -31.84)"/><path class="cls-1" d="M970.67,174.59q12-4.2,17.5-4t10.7,5q4.4,4,5.4,7.9t-2,5.7q-.8.6-8.5,2.2t-19.4,5.3a103.16,103.16,0,0,0-21.5,9.5,59,59,0,0,1-5.4,2.8q-3.8,1.8-6.6,3.4a14.09,14.09,0,0,0-4.2,3.4q-1.6,2-1.3,3.1t3.1,3.1q4.4,3.2,15.1,5.4t20.5,3.5a61.91,61.91,0,0,1,17.5,4.8q7.7,3.5,7.7,9.1,0,3.4-4.2,9.1a33.31,33.31,0,0,1-8.2,8.3q-4.2,2.4-8.4,5.3t-5.6,3.8a22.92,22.92,0,0,1-4.6,2,28.33,28.33,0,0,1-7,1.4q-3.8.3-11.2.5-13,.6-16.3,0t-7.3-4a20.16,20.16,0,0,1-4.6-5.3,14.29,14.29,0,0,1-1.2-6.5q0-6.8,1.7-7.8t9.5,1a32,32,0,0,0,19.4-.4q5.8-1.8,2.4-3.6a23,23,0,0,0-6.6-1.8,53,53,0,0,1-16-4.9,43.29,43.29,0,0,1-12.8-8.7q-7.6-8-4.7-19.5t14.5-19.3a39.36,39.36,0,0,1,7.9-4.2q4.1-1.6,6.3-2.4t2.6-1.6Q946.87,183,970.67,174.59Z" transform="translate(-32.81 -31.84)"/><path class="cls-1" d="M1152.27,137.59l11-12h26.8l-2.6,73,6,.6q3.8.4,4.9,1.3t1.1,3.7a6.25,6.25,0,0,1-1.4,4.1,13.84,13.84,0,0,1-4.8,3.3,13.32,13.32,0,0,0-7.1,6.9,18.85,18.85,0,0,0-1.5,9.1,46.68,46.68,0,0,1-.5,10.7,24.77,24.77,0,0,1-3.9,10.5q-4.6,6.8-7.6,8.1t-6.4-2.1a12.07,12.07,0,0,1-3.2-6.1q-.6-3.3-.4-14.1.2-16.2-1.2-16.2-3.8.2-16.1,2.3t-15.9,3.3a12.65,12.65,0,0,0-5.8,3.8,46.3,46.3,0,0,0-5.4,9.4q-5.4,11.4-5.4,14.8,0,5.2-7.4,10.8a5.59,5.59,0,0,1-3.4,1.3,10.54,10.54,0,0,1-4.2-1.9q-5-3.2-5.3-6.8t3.3-14.8l4.6-13.6-4.4-5.6a19.1,19.1,0,0,1-3.4-5.7,10.39,10.39,0,0,1,.2-5.3q1-3.8,2.6-4.7t8-1.1q8-.6,11.2-4t9.6-17.8q4.2-9.8,6.6-14.3t3.2-6.3a22.19,22.19,0,0,1,4.3-5.8q3.1-3.2,3.1-4.6Q1141.47,149.8,1152.27,137.59Zm17,14.4q1-3.2-1.8-3.2-2.4,0-9.5,10.5a167.35,167.35,0,0,0-12.9,22.9q-1.8,3.8-4.4,9.2a74.89,74.89,0,0,0-3.5,7.3,2.5,2.5,0,0,0,.3,2.5q2,1.4,14-.2t13.4-3.2q1.4-1.6,2.6-22.9T1169.27,152Z" transform="translate(-32.81 -31.84)"/><path class="cls-1" d="M1236.27,247q0,1.8-3.6,8.1t-3.6,10.1q0,4.4-6.6,11.9t-10.6,7.5a7.1,7.1,0,0,1-6.4-3.5q-2.2-3.5-2-9.7.2-8.2,3.2-24.5t5.4-22.1q2.8-6.8,2.8-10.6,0-2.8,3.5-10.4a68.06,68.06,0,0,0,4.3-11,27,27,0,0,1,5.6-10.7q4-4.7,7.8-4.7a11,11,0,0,1,4.6,1.4,18.37,18.37,0,0,1,4.8,3.4l5,4.6,3.4-4.2a32.65,32.65,0,0,0,4.9-8,47.28,47.28,0,0,1,4.7-8.4q2.8-4,6.1-3.9t9.1,4.1q3.4,2.6,6.4,9.4a30.72,30.72,0,0,1,3,12.2q0,5.4,1.4,5.4t8.2-8q4.8-5.8,7.1-6.9t9.1-1.1q6.6,0,9.2,1t7,5a19.21,19.21,0,0,1,5.9,9.7,16.56,16.56,0,0,1-.2,8.9q-1.3,3.8-3.1,8.8a25.45,25.45,0,0,0-1.8,8.2,15.94,15.94,0,0,1-.6,4.2,33.13,33.13,0,0,1-1.3,3.9q-.7,1.7-3.2,6.8t-4.5,9.5q-11.4,25.6-17,34.6-2.6,4.4-4.3,5.5t-5.3.7q-6.2-.6-8.6-5.4t0-11.6q2.4-6.6,7.9-18t6.9-12.2q1.4-.8,1.4-3.4,0-1.4,3.3-9.5t5.6-15.9q2.3-7.8.7-9.6-1.8-1.8-5-.3a9.82,9.82,0,0,0-4.8,4.9q-4.6,8-7.6,13.6l-6.1,11.4q-3.1,5.8-5.3,10.5t-2.2,5.9q0,1.6-3.8,9.6l-5.8,12.2a18.51,18.51,0,0,1-7.3,8.4q-4.7,2.8-9.1,1.4a12.5,12.5,0,0,1-4.7-2.6,6.9,6.9,0,0,1-2-4.5,28.08,28.08,0,0,1,0-5.8,47.8,47.8,0,0,1,2-8.4q1.7-5.5,3.3-10.3t4.5-13.2q2.9-8.4,5.1-15.8a29.53,29.53,0,0,0,1.6-7.7,43.25,43.25,0,0,0,.1-7.7q-.3-3.2-1.3-3.2-1.4,0-6.3,8.9t-4.9,11.1q0,1.2-4.4,7.2t-4.4,8.3q0,2.3-3.6,7.4T1236.27,247Z" transform="translate(-32.81 -31.84)"/><path class="cls-1" d="M1386.47,172.79q5.4-4.2,8-5.2t7.4-.4a27.15,27.15,0,0,1,14.1,5.9,23.65,23.65,0,0,1,8.5,11.7,28.85,28.85,0,0,1,1,8.9,124.06,124.06,0,0,1-2,14.5q-4,20.6-10.6,32.6l-4,7.2q-4.2,8-17.5,22.2t-16.7,14.2a6.31,6.31,0,0,0-4,2.6q-2,2.4-9.3,3.5t-10.5-.7q-3.6-1.8-7.2-9.6a29.54,29.54,0,0,1-2.9-9.3,104.19,104.19,0,0,1-.1-14.3q.6-11.2,1.8-19.7a84.59,84.59,0,0,1,3.3-14.8q2.1-6.3,3.5-9.6a83.61,83.61,0,0,1,4.6-8.8q3.2-5.5,4.2-7.5,6.4-12.6,8.3-14.8t6.5-2.2Q1378.47,179.19,1386.47,172.79Zm0,70q0-.4,7.2-11.5t7.2-13.9q0-2.2,3-12.3t1.2-12.9q-1.8-3-3.8-3.3t-6.8,1.7q-10,4.4-19.3,22.8a97.66,97.66,0,0,0-10.7,36.8q-.8,10,2.1,10.6t11.3-8Q1386.47,243.6,1386.47,242.79Z" transform="translate(-32.81 -31.84)"/><path class="cls-1" d="M1480.67,179q7-3.4,21.4-3.3t18.2,3.9q3.2,3.2,1.4,5.8-1.4,2-10.7,6.3a98,98,0,0,1-16.3,6.1,23.31,23.31,0,0,0-11.4,6.9q-5,5.3-10.4,16.1a216.62,216.62,0,0,0-9.8,22.7,90.35,90.35,0,0,0-4.2,18.3q-1,10-6,16.4t-10.6,5.2a17.37,17.37,0,0,1-8.6-5l-4-3.8,5.4-27.4q2.4-12.2,4.1-19.7t2.2-9.4q.5-1.9,1.1-4.8t1.4-8.1q1.6-11.8,5.4-18,3-5,5.7-5.4t9.9,3.2a6.45,6.45,0,0,0,3.2.9,6,6,0,0,0,2.2-.6q1-.5,4-2.4T1480.67,179Z" transform="translate(-32.81 -31.84)"/><path class="cls-1" d="M1587.27,241.59q2.8,0,17-7.1t16-7.1q2.2,0,6.8-3.6,6.8-5.4,10.2-2.8,2.6,2,0,7-2.2,4-10.5,12.4t-10.3,8.4q-1.4,0-5.3,2.4l-9.6,5.9a57.27,57.27,0,0,1-10.1,5.1q-2.6,1.2-8.8,3.9t-9.2,3.9a74.56,74.56,0,0,1-8.3,2.6,32.31,32.31,0,0,1-8.9,1.3,38.32,38.32,0,0,1-8.3-1.3,28.74,28.74,0,0,1-8.9-4q-8.4-5.6-11.2-16.4a51.58,51.58,0,0,1-.7-22.4,149.91,149.91,0,0,1,6.1-23,118.69,118.69,0,0,1,8.5-19.3q4.5-7.9,7.1-10.1,2.8-2.2,2.8-4.6a2.67,2.67,0,0,1,.6-1.6,10.33,10.33,0,0,1,2.4-2q1.8-1.2,3.8-2.3t6-3.4q4-2.3,7.6-4.7,9-5.4,15.7-6.2t14.5,2.6q6.8,2.6,8.4,7.7t-.2,17.5q-2.6,19.6-12.8,32.7t-31.4,24.5q-7.6,4-10.2,4a3.44,3.44,0,0,0-3.5,2.1,4,4,0,0,0,.9,4.3q2,2.4,10.3,1.4a37.9,37.9,0,0,0,14.3-4.4Q1583.87,241.59,1587.27,241.59Zm5.8-67.2q.6-3.8-2.4-3.4-2.8.4-9,4.4-6.8,4.4-14.8,13.8t-8,13a6.78,6.78,0,0,1-1.4,4.1q-1.4,1.9-1.9,2.5t1.1,2.8q3.8,4,20.4-10.8a61.4,61.4,0,0,0,10.3-12.8Q1592.07,180.4,1593.07,174.39Z" transform="translate(-32.81 -31.84)"/></svg>